<?xml version="1.0" standalone="no"?>
<!DOCTYPE svg PUBLIC "-//W3C//DTD SVG 20010904//EN"
 "http://www.w3.org/TR/2001/REC-SVG-20010904/DTD/svg10.dtd">
<svg version="1.0" xmlns="http://www.w3.org/2000/svg"
 width="300.000000pt" height="300.000000pt" viewBox="0 0 300.000000 300.000000"
 preserveAspectRatio="xMidYMid meet">
<metadata>
Created by potrace 1.10, written by Peter Selinger 2001-2011
</metadata>
<g transform="translate(0.000000,300.000000) scale(0.100000,-0.100000)"
fill="#eeff05" stroke="none">
<path d="M1468 2309 c-24 -14 -23 -55 2 -72 21 -14 21 -14 -5 -95 -18 -56 -34
-87 -52 -101 -49 -40 -82 -26 -148 59 -40 53 -44 62 -33 80 16 25 1 54 -31 58
-48 7 -68 -49 -26 -72 29 -16 33 -25 40 -81 15 -120 -46 -146 -141 -58 -17 16
-36 27 -43 25 -6 -2 -18 2 -26 8 -12 10 -13 16 -4 26 16 19 36 17 48 -3 6 -10
11 -13 11 -7 1 34 -61 41 -74 9 -6 -17 19 -45 39 -45 17 0 86 -91 117 -154
l22 -46 337 0 c326 0 338 1 344 20 3 10 28 53 56 95 34 52 58 79 78 86 35 12
44 31 27 54 -13 19 -56 13 -56 -7 0 -6 6 -6 15 2 19 16 53 -6 36 -23 -15 -15
-41 -17 -41 -4 0 7 -6 1 -13 -13 -17 -34 -96 -81 -124 -74 -32 9 -46 58 -33
123 5 30 10 55 10 57 0 1 10 4 23 6 27 4 36 48 13 67 -36 30 -95 -19 -66 -54
9 -11 7 -22 -10 -50 -27 -44 -105 -105 -135 -105 -37 0 -72 54 -98 151 -13 52
-13 57 4 68 25 15 24 57 0 71 -24 12 -41 12 -63 -1z m60 -11 c32 -32 -8 -80
-48 -58 -34 18 -19 70 20 70 9 0 21 -5 28 -12z m-314 -74 c19 -7 21 -38 4 -52
-19 -14 -58 4 -58 27 0 25 24 37 54 25z m610 0 c24 -9 19 -43 -6 -53 -38 -14
-63 20 -36 47 14 14 20 14 42 6z m-278 -139 c22 -47 51 -75 78 -75 36 0 121
68 155 125 7 12 10 13 8 4 -14 -44 -17 -107 -8 -132 17 -44 50 -53 101 -27
l42 22 -25 -34 c-13 -18 -34 -52 -46 -75 l-21 -43 -330 0 c-182 0 -330 4 -330
8 0 4 -20 38 -44 75 l-43 66 38 -19 c50 -26 63 -25 88 6 23 29 27 78 11 134
l-10 35 20 -25 c11 -14 28 -36 36 -50 21 -34 74 -70 103 -70 51 0 79 35 107
134 24 83 25 84 40 27 8 -29 21 -68 30 -86z"/>
<path d="M1050 1503 l1 -288 72 -90 72 -90 3 138 3 137 59 0 60 0 0 -222 1
-223 74 -94 74 -93 1 556 0 556 -75 0 -75 0 0 -165 0 -165 -60 0 -60 0 0 165
0 165 -75 0 -75 0 0 -287z m140 112 l0 -166 73 3 72 3 0 163 0 162 63 0 62 0
0 -535 c0 -294 -1 -535 -3 -535 -2 0 -29 35 -61 78 l-57 77 -2 225 -2 225 -72
3 -72 3 -3 -131 -3 -130 -62 81 -63 82 0 279 0 278 65 0 65 0 0 -165z"/>
<path d="M1530 1233 l0 -556 75 94 74 94 1 208 0 208 32 -33 31 -32 -2 -123
c-2 -77 1 -123 8 -123 5 0 53 57 107 126 l97 126 -87 87 -86 86 85 85 85 85 0
112 0 113 -75 0 -75 0 -1 -82 -1 -83 -59 -54 -59 -54 0 136 0 137 -75 0 -75 0
0 -557z m132 411 c-2 -75 1 -141 5 -145 5 -5 40 23 78 61 l69 70 -3 75 -2 75
65 0 66 0 0 -103 0 -102 -85 -85 c-47 -47 -85 -89 -85 -96 0 -6 38 -47 84 -93
l85 -82 -76 -97 c-42 -53 -81 -105 -87 -114 -6 -10 -13 -18 -16 -18 -3 0 -3
50 -2 111 l4 111 -43 44 c-23 24 -46 41 -51 38 -5 -3 -8 -101 -8 -217 l2 -212
-58 -77 c-32 -43 -59 -78 -61 -78 -2 0 -3 241 -3 535 l0 535 63 0 62 0 -3
-136z"/>
</g>
</svg>
