<?xml version="1.0" standalone="no"?>
<!DOCTYPE svg PUBLIC "-//W3C//DTD SVG 20010904//EN"
 "http://www.w3.org/TR/2001/REC-SVG-20010904/DTD/svg10.dtd">
<svg version="1.0" xmlns="http://www.w3.org/2000/svg"
 width="300.000000pt" height="300.000000pt" viewBox="0 0 300.000000 300.000000"
 preserveAspectRatio="xMidYMid meet">
<metadata>
Created by potrace 1.10, written by Peter Selinger 2001-2011
</metadata>
<g transform="translate(0.000000,300.000000) scale(0.100000,-0.100000)"
fill="#000000" stroke="none">
<path d="M560 1854 c0 -91 4 -153 12 -167 27 -52 75 -61 113 -22 24 23 25 29
25 153 0 116 -2 132 -21 156 -18 22 -28 26 -75 26 l-54 0 0 -146z m91 96 c17
-10 19 -22 19 -120 0 -125 -4 -140 -35 -140 -31 0 -35 15 -35 144 0 131 4 141
51 116z"/>
<path d="M1290 1785 l0 -215 -365 0 -365 0 0 -44 c0 -29 7 -52 21 -70 l20 -26
345 0 344 0 0 -189 c0 -175 1 -190 21 -215 18 -22 28 -26 75 -26 l54 0 0 474
c0 464 0 474 -21 500 -18 22 -28 26 -75 26 l-54 0 0 -215z m93 168 c8 -13 19
-870 12 -892 -8 -26 -41 -28 -54 -2 -6 10 -11 98 -11 194 l-2 176 -32 21 c-32
19 -49 20 -354 20 -317 0 -321 0 -333 21 -7 13 -7 25 -1 31 5 5 142 9 334 8
179 0 333 2 342 6 38 15 46 55 46 237 0 95 3 177 7 180 9 9 41 9 46 0z"/>
<path d="M1562 1736 c3 -243 5 -266 22 -285 18 -20 29 -21 201 -21 l182 0 110
-132 c249 -299 248 -298 289 -298 23 0 38 7 53 26 35 44 28 62 -60 165 -172
200 -259 303 -259 308 0 4 74 94 165 201 91 107 168 206 171 218 11 39 -25 77
-72 77 -38 0 -41 -4 -218 -212 l-180 -213 -128 0 -128 0 0 189 c0 175 -1 190
-21 215 -18 22 -28 26 -75 26 l-55 0 3 -264z m88 213 c0 -5 5 -7 10 -4 7 4 10
-58 10 -178 l0 -184 26 -27 c26 -25 31 -26 143 -26 64 0 122 4 130 9 31 20
101 85 101 94 0 5 10 19 23 31 17 17 142 163 238 280 20 24 59 14 59 -16 0
-19 -46 -84 -89 -129 -9 -9 -34 -38 -56 -64 -22 -27 -63 -76 -92 -109 -28 -32
-60 -74 -69 -92 -17 -31 -17 -35 -2 -66 10 -18 83 -109 163 -203 116 -134 145
-175 143 -195 -4 -33 -30 -37 -60 -8 -20 20 -93 104 -150 172 -131 159 -184
215 -215 227 -13 5 -96 9 -183 9 -147 0 -160 1 -170 19 -11 22 -14 453 -3 464
10 11 43 8 43 -4z"/>
<path d="M560 1206 c0 -140 2 -156 21 -180 18 -22 28 -26 75 -26 l54 0 0 155
c0 152 -1 156 -25 180 -19 20 -34 25 -75 25 l-50 0 0 -154z m95 98 c13 -13 15
-37 13 -137 -3 -111 -5 -122 -22 -125 -36 -7 -46 24 -46 148 0 64 3 120 7 123
11 12 31 8 48 -9z"/>
<path d="M1604 1348 c-37 -17 -44 -51 -44 -203 l0 -145 53 0 c40 0 59 5 75 20
21 20 22 29 22 180 l0 160 -42 -1 c-24 0 -53 -5 -64 -11z m62 -52 c3 -13 4
-72 2 -131 -3 -113 -13 -137 -52 -122 -24 9 -24 232 1 259 22 25 41 23 49 -6z"/>
</g>
</svg>
